<svg width="236" height="54" fill="none" xmlns="http://www.w3.org/2000/svg"><g opacity=".8" clip-path="url('#clip0_46_450')"><path d="M67.451 46V25.408h7.114c5.011 0 7.862 2.218 7.862 6.566v.116c0 4.348-3.024 6.422-7.718 6.422h-2.621V46h-4.637Zm4.637-10.742h2.362c2.275 0 3.484-1.095 3.484-3.14v-.115c0-2.189-1.267-3.052-3.484-3.052h-2.362v6.307ZM84.946 46V24.112h4.176v9.216c.748-1.498 2.39-2.736 4.896-2.736 2.966 0 5.068 1.786 5.068 5.818V46H94.91v-8.986c0-2.044-.806-3.024-2.65-3.024-1.785 0-3.138 1.095-3.138 3.313V46h-4.176Zm24.579-2.851c2.333 0 3.686-1.728 3.686-4.58v-.2c0-2.88-1.353-4.609-3.686-4.609-2.304 0-3.687 1.67-3.687 4.55v.23c0 2.88 1.325 4.609 3.687 4.609Zm-.029 3.168c-4.493 0-7.92-2.995-7.92-7.69v-.23c0-4.723 3.427-7.805 7.949-7.805 4.521 0 7.92 3.024 7.92 7.718v.23c0 4.753-3.427 7.777-7.949 7.777ZM120.078 46V30.938h4.176v2.39c.749-1.498 2.391-2.736 4.896-2.736 2.967 0 5.069 1.786 5.069 5.818V46h-4.176v-8.986c0-2.044-.806-3.024-2.649-3.024-1.786 0-3.14 1.095-3.14 3.313V46h-4.176Zm24.493.317c-4.55 0-7.862-2.851-7.862-7.66v-.231c0-4.752 3.369-7.834 7.747-7.834 3.888 0 7.344 2.275 7.344 7.66v1.153h-10.858c.116 2.505 1.469 3.945 3.744 3.945 1.93 0 2.88-.835 3.14-2.102h3.945c-.489 3.255-3.081 5.069-7.2 5.069ZM141 36.842h6.739c-.144-2.276-1.296-3.37-3.283-3.37-1.872 0-3.139 1.239-3.456 3.37Zm20.202 9.475c-4.407 0-7.748-2.736-7.748-7.66v-.231c0-4.867 3.485-7.834 7.776-7.834 3.485 0 6.711 1.526 7.085 5.846h-3.945c-.288-1.756-1.354-2.563-3.053-2.563-2.16 0-3.6 1.613-3.6 4.493v.23c0 3.025 1.353 4.58 3.686 4.58 1.671 0 3.024-.98 3.226-2.91h3.773c-.231 3.572-2.823 6.049-7.2 6.049Zm9.66-.317V24.112h4.176v9.216c.749-1.498 2.391-2.736 4.896-2.736 2.967 0 5.069 1.786 5.069 5.818V46h-4.176v-8.986c0-2.044-.806-3.024-2.649-3.024-1.786 0-3.14 1.095-3.14 3.313V46h-4.176Zm24.493.317c-4.55 0-7.862-2.851-7.862-7.66v-.231c0-4.752 3.369-7.834 7.747-7.834 3.888 0 7.344 2.275 7.344 7.66v1.153h-10.858c.116 2.505 1.469 3.945 3.744 3.945 1.93 0 2.88-.835 3.14-2.102h3.945c-.489 3.255-3.081 5.069-7.2 5.069Zm-3.571-9.475h6.739c-.144-2.276-1.296-3.37-3.283-3.37-1.872 0-3.139 1.239-3.456 3.37Zm20.202 9.475c-4.407 0-7.748-2.736-7.748-7.66v-.231c0-4.867 3.485-7.834 7.776-7.834 3.485 0 6.711 1.526 7.085 5.846h-3.945c-.288-1.756-1.354-2.563-3.053-2.563-2.16 0-3.6 1.613-3.6 4.493v.23c0 3.025 1.353 4.58 3.686 4.58 1.671 0 3.024-.98 3.226-2.91h3.773c-.231 3.572-2.823 6.049-7.2 6.049Zm9.66-.317V24.112h4.176v13.19l4.839-6.364h4.435l-5.472 6.854L235.528 46h-4.723l-4.983-7.114V46h-4.176Z" fill="#C4C7CE"/><path fill-rule="evenodd" clip-rule="evenodd" d="M13.241 26.208 0 37.974 13.241 54h19.777L58 9.558 41.954 0 22 38l-.25-.4-8.509-11.392Z" fill="#C4C7CE"/><path fill-rule="evenodd" clip-rule="evenodd" d="M22.07 37.607 33.364 54l-6.306-24.453-4.986 8.06Z" fill="url('#paint0_linear_46_450')"/></g><defs><linearGradient id="paint0_linear_46_450" x1="586.673" y1="29.547" x2="586.673" y2="2474.83" gradientUnits="userSpaceOnUse"><stop stop-opacity=".095"/><stop offset="1" stop-opacity=".545"/></linearGradient><clipPath id="clip0_46_450"><path fill="#fff" d="M0 0h236v54H0z"/></clipPath></defs></svg>